<?xml version="1.0" encoding="iso-8859-1"?>
<!-- Generator: Adobe Illustrator 17.0.0, SVG Export Plug-In . SVG Version: 6.00 Build 0)  -->
<!DOCTYPE svg PUBLIC "-//W3C//DTD SVG 1.1//EN" "http://www.w3.org/Graphics/SVG/1.1/DTD/svg11.dtd">
<svg version="1.1" id="Capa_1" xmlns="http://www.w3.org/2000/svg" xmlns:xlink="http://www.w3.org/1999/xlink" x="0px" y="0px"
	 width="64px" height="64px" viewBox="0 0 64 64" style="enable-background:new 0 0 64 64;" xml:space="preserve">
<g>
	<path d="M58.559,12.25H5.441c-2.206,0-4,1.818-4,4.053v30.894c0,2.235,1.794,4.053,4,4.053h53.118c2.206,0,4-1.818,4-4.053V16.303
		C62.559,14.068,60.765,12.25,58.559,12.25z M60.559,47.197c0,1.132-0.897,2.053-2,2.053H5.441c-1.103,0-2-0.921-2-2.053V16.303
		c0-1.132,0.897-2.053,2-2.053h53.118c1.103,0,2,0.921,2,2.053V47.197z"/>
	<path d="M8.454,38.14c0.175-0.305,0.263-0.741,0.263-1.306c0-0.565-0.088-1.001-0.263-1.308c-0.176-0.307-0.481-0.46-0.917-0.46
		s-0.742,0.153-0.917,0.46c-0.175,0.307-0.263,0.743-0.263,1.308c0,0.565,0.088,1,0.263,1.306c0.176,0.305,0.481,0.458,0.917,0.458
		S8.279,38.445,8.454,38.14z M7.14,37.737c-0.065-0.209-0.097-0.51-0.097-0.903c0-0.412,0.032-0.718,0.097-0.916
		c0.065-0.198,0.197-0.297,0.397-0.297s0.331,0.099,0.393,0.297c0.062,0.198,0.093,0.504,0.093,0.916
		c0,0.393-0.031,0.695-0.093,0.903S7.737,38.05,7.537,38.05S7.205,37.946,7.14,37.737z"/>
	<path d="M10.724,38.513v-3.424h-0.562c0,0.03-0.009,0.076-0.026,0.137c-0.03,0.102-0.074,0.184-0.132,0.246
		c-0.085,0.09-0.195,0.15-0.33,0.179C9.59,35.67,9.442,35.684,9.23,35.694v0.458h0.805v2.361H10.724z"/>
	<path d="M12.573,37.115c-0.357,0.255-0.584,0.497-0.68,0.725c-0.099,0.203-0.152,0.427-0.158,0.673h2.345V37.92h-1.495
		c0.042-0.071,0.095-0.133,0.157-0.187c0.062-0.054,0.178-0.14,0.346-0.26l0.27-0.191c0.227-0.161,0.39-0.306,0.49-0.437
		c0.151-0.197,0.227-0.422,0.227-0.675c0-0.331-0.107-0.596-0.321-0.797c-0.214-0.201-0.503-0.301-0.865-0.301
		c-0.459,0-0.778,0.171-0.957,0.512c-0.095,0.179-0.147,0.415-0.158,0.706h0.654c0.008-0.192,0.033-0.332,0.076-0.42
		c0.074-0.153,0.213-0.229,0.418-0.229c0.15,0,0.264,0.048,0.345,0.144s0.12,0.216,0.12,0.361c0,0.178-0.07,0.342-0.21,0.491
		C13.084,36.734,12.883,36.893,12.573,37.115z"/>
	<path d="M15.573,38.05c-0.215,0-0.364-0.083-0.445-0.248c-0.044-0.09-0.066-0.203-0.066-0.34h-0.661
		c0.011,0.272,0.066,0.493,0.165,0.661c0.189,0.316,0.525,0.475,1.01,0.475c0.393,0,0.69-0.11,0.891-0.329
		c0.2-0.22,0.301-0.474,0.301-0.764c0-0.275-0.086-0.493-0.257-0.652c-0.115-0.105-0.203-0.158-0.264-0.158
		c0.082-0.031,0.161-0.09,0.236-0.177c0.12-0.138,0.179-0.309,0.179-0.51c0-0.285-0.1-0.512-0.301-0.681
		c-0.201-0.169-0.464-0.254-0.791-0.254c-0.176,0-0.325,0.021-0.446,0.064c-0.121,0.042-0.225,0.104-0.314,0.184
		c-0.118,0.113-0.204,0.237-0.26,0.371c-0.052,0.153-0.081,0.314-0.087,0.484h0.628c-0.003-0.168,0.032-0.303,0.107-0.404
		c0.075-0.101,0.191-0.151,0.35-0.151c0.138,0,0.245,0.041,0.321,0.123c0.076,0.082,0.114,0.188,0.114,0.319
		c0,0.201-0.075,0.335-0.224,0.401c-0.086,0.039-0.238,0.061-0.456,0.064v0.482c0.223,0,0.386,0.021,0.49,0.064
		c0.182,0.076,0.273,0.226,0.273,0.451c0,0.17-0.049,0.3-0.147,0.391C15.82,38.005,15.705,38.05,15.573,38.05z"/>
	<path d="M21.791,38.513v-0.737h0.387V37.25h-0.387V35.11h-0.756l-1.258,2.078v0.588h1.355v0.737H21.791z M20.277,37.25l0.854-1.475
		v1.475H20.277z"/>
	<path d="M24.832,37.382c0-0.364-0.105-0.641-0.316-0.831c-0.211-0.19-0.457-0.286-0.74-0.286c-0.14,0-0.259,0.018-0.356,0.054
		c-0.058,0.022-0.139,0.067-0.243,0.135l0.123-0.748h1.398v-0.571h-1.884l-0.24,1.891l0.603,0.028
		c0.054-0.102,0.133-0.172,0.238-0.21c0.06-0.02,0.13-0.031,0.212-0.031c0.173,0,0.3,0.06,0.382,0.181
		c0.081,0.12,0.122,0.268,0.122,0.443c0,0.178-0.044,0.325-0.131,0.443c-0.087,0.117-0.214,0.176-0.381,0.176
		c-0.144,0-0.254-0.04-0.33-0.119c-0.075-0.08-0.126-0.192-0.153-0.339h-0.671c0.024,0.321,0.14,0.569,0.349,0.744
		s0.477,0.262,0.802,0.262c0.404,0,0.708-0.124,0.911-0.373C24.73,37.981,24.832,37.698,24.832,37.382z"/>
	<path d="M26.371,38.602c0.401,0,0.697-0.122,0.888-0.366c0.19-0.244,0.286-0.526,0.286-0.845c0-0.321-0.097-0.585-0.292-0.791
		s-0.443-0.309-0.747-0.309c-0.142,0-0.268,0.023-0.378,0.068c-0.11,0.046-0.207,0.118-0.29,0.217
		c0.019-0.264,0.053-0.464,0.104-0.6c0.093-0.246,0.249-0.368,0.467-0.368c0.146,0,0.256,0.054,0.328,0.161
		c0.042,0.066,0.064,0.127,0.064,0.182h0.671c-0.024-0.271-0.13-0.488-0.319-0.65c-0.189-0.163-0.442-0.244-0.76-0.244
		c-0.22,0-0.41,0.05-0.568,0.151c-0.158,0.101-0.286,0.234-0.384,0.399c-0.113,0.194-0.19,0.436-0.229,0.727
		c-0.022,0.164-0.033,0.376-0.033,0.637c0,0.445,0.079,0.809,0.238,1.091C25.622,38.422,25.94,38.602,26.371,38.602z M26.052,36.933
		c0.088-0.069,0.19-0.104,0.305-0.104c0.142,0,0.261,0.053,0.359,0.159c0.098,0.106,0.146,0.259,0.146,0.459
		c0,0.179-0.043,0.325-0.129,0.438s-0.203,0.169-0.353,0.169c-0.153,0-0.279-0.058-0.378-0.175
		c-0.099-0.117-0.149-0.267-0.149-0.451C25.854,37.201,25.92,37.035,26.052,36.933z"/>
	<path d="M27.84,35.738h1.706c-0.167,0.162-0.374,0.449-0.622,0.859c-0.383,0.663-0.584,1.301-0.605,1.915h0.699
		c0-0.197,0.039-0.449,0.116-0.756s0.164-0.567,0.26-0.779c0.121-0.271,0.272-0.533,0.452-0.787c0.18-0.254,0.32-0.431,0.421-0.53
		v-0.527h-2.418L27.84,35.738z"/>
	<path d="M35.28,38.299c0.213-0.202,0.32-0.447,0.32-0.735c0-0.192-0.043-0.366-0.128-0.522s-0.213-0.281-0.382-0.375
		c0.165-0.094,0.273-0.206,0.322-0.334c0.05-0.128,0.074-0.248,0.074-0.36c0-0.249-0.094-0.461-0.282-0.636
		c-0.188-0.176-0.453-0.263-0.795-0.263s-0.607,0.088-0.795,0.263c-0.188,0.175-0.282,0.388-0.282,0.636
		c0,0.112,0.025,0.232,0.075,0.36c0.05,0.128,0.158,0.248,0.324,0.358c-0.167,0.079-0.295,0.196-0.381,0.352
		c-0.087,0.156-0.13,0.33-0.13,0.522c0,0.288,0.098,0.533,0.295,0.735c0.197,0.202,0.487,0.303,0.87,0.303
		S35.067,38.501,35.28,38.299z M34.093,35.73c0.077-0.076,0.183-0.115,0.318-0.115c0.137,0,0.243,0.038,0.318,0.115
		c0.075,0.076,0.113,0.182,0.113,0.318c0,0.124-0.038,0.226-0.113,0.305c-0.075,0.079-0.181,0.118-0.318,0.118
		c-0.136,0-0.242-0.039-0.318-0.118c-0.077-0.079-0.115-0.18-0.115-0.305C33.978,35.912,34.017,35.807,34.093,35.73z M33.919,37.519
		c0-0.175,0.044-0.307,0.133-0.398c0.089-0.091,0.209-0.136,0.36-0.136s0.271,0.045,0.36,0.136s0.133,0.223,0.133,0.398
		c0,0.168-0.044,0.299-0.131,0.392c-0.087,0.093-0.208,0.139-0.362,0.139c-0.154,0-0.275-0.046-0.362-0.139
		C33.963,37.818,33.919,37.687,33.919,37.519z"/>
	<path d="M37.069,38.059c-0.115,0-0.207-0.031-0.276-0.094c-0.069-0.063-0.112-0.145-0.128-0.246h-0.671
		c0.03,0.291,0.147,0.513,0.352,0.665c0.205,0.152,0.435,0.228,0.692,0.228c0.538,0,0.908-0.264,1.11-0.791
		c0.105-0.277,0.158-0.623,0.158-1.037c0-0.427-0.055-0.77-0.165-1.032c-0.194-0.461-0.551-0.692-1.072-0.692
		c-0.338,0-0.613,0.114-0.825,0.341c-0.212,0.227-0.318,0.525-0.318,0.891c0,0.354,0.105,0.625,0.316,0.813
		c0.211,0.188,0.453,0.282,0.725,0.282c0.184,0,0.339-0.038,0.465-0.113c0.069-0.041,0.135-0.1,0.196-0.177
		c-0.013,0.26-0.043,0.457-0.092,0.593C37.447,37.937,37.291,38.059,37.069,38.059z M37.376,36.761
		c-0.082,0.053-0.169,0.08-0.262,0.08c-0.172,0-0.299-0.051-0.381-0.152c-0.083-0.102-0.124-0.254-0.124-0.457
		c0-0.241,0.065-0.412,0.194-0.512c0.082-0.065,0.18-0.097,0.295-0.097c0.157,0,0.281,0.057,0.372,0.17s0.136,0.267,0.136,0.46
		C37.605,36.494,37.529,36.663,37.376,36.761z"/>
	<path d="M40.301,38.513v-3.424h-0.562c0,0.03-0.009,0.076-0.026,0.137c-0.03,0.102-0.074,0.184-0.132,0.246
		c-0.085,0.09-0.195,0.15-0.33,0.179c-0.085,0.019-0.233,0.033-0.445,0.043v0.458h0.805v2.361H40.301z"/>
	<path d="M42.319,37.734c0.062-0.054,0.178-0.14,0.346-0.26l0.27-0.191c0.227-0.161,0.39-0.306,0.49-0.437
		c0.151-0.197,0.227-0.422,0.227-0.675c0-0.331-0.107-0.596-0.321-0.797c-0.214-0.201-0.503-0.301-0.865-0.301
		c-0.459,0-0.778,0.171-0.957,0.512c-0.095,0.179-0.147,0.415-0.158,0.706h0.654c0.008-0.192,0.033-0.332,0.076-0.42
		c0.074-0.153,0.213-0.229,0.418-0.229c0.15,0,0.264,0.048,0.345,0.144c0.08,0.096,0.12,0.216,0.12,0.361
		c0,0.178-0.07,0.342-0.21,0.491c-0.091,0.096-0.292,0.255-0.602,0.477c-0.357,0.255-0.584,0.497-0.68,0.725
		c-0.099,0.203-0.152,0.427-0.158,0.673h2.345V37.92h-1.495C42.204,37.849,42.257,37.787,42.319,37.734z"/>
	<path d="M48.508,36.695c0.082-0.031,0.161-0.09,0.236-0.177c0.12-0.138,0.179-0.309,0.179-0.51c0-0.285-0.1-0.512-0.301-0.681
		c-0.201-0.169-0.464-0.254-0.791-0.254c-0.176,0-0.325,0.021-0.446,0.064c-0.121,0.042-0.225,0.104-0.314,0.184
		c-0.118,0.113-0.204,0.237-0.26,0.371c-0.052,0.153-0.081,0.314-0.087,0.484h0.628c-0.003-0.168,0.032-0.303,0.107-0.404
		c0.075-0.101,0.191-0.151,0.35-0.151c0.138,0,0.245,0.041,0.321,0.123c0.076,0.082,0.114,0.188,0.114,0.319
		c0,0.201-0.075,0.335-0.224,0.401c-0.086,0.039-0.238,0.061-0.456,0.064v0.482c0.223,0,0.386,0.021,0.49,0.064
		c0.182,0.076,0.273,0.226,0.273,0.451c0,0.17-0.049,0.3-0.147,0.391c-0.098,0.09-0.213,0.136-0.345,0.136
		c-0.215,0-0.364-0.083-0.445-0.248c-0.044-0.09-0.066-0.203-0.066-0.34h-0.661c0.011,0.272,0.066,0.493,0.165,0.661
		c0.189,0.316,0.525,0.475,1.01,0.475c0.393,0,0.69-0.11,0.891-0.329c0.2-0.22,0.301-0.474,0.301-0.764
		c0-0.275-0.086-0.493-0.257-0.652C48.658,36.747,48.57,36.695,48.508,36.695z"/>
	<path d="M51.368,35.11h-0.756l-1.258,2.078v0.588h1.355v0.737h0.659v-0.737h0.387V37.25h-0.387V35.11z M50.709,37.25h-0.855
		l0.855-1.475V37.25z"/>
	<path d="M53.352,36.265c-0.14,0-0.258,0.018-0.356,0.054c-0.058,0.022-0.139,0.067-0.243,0.135l0.123-0.748h1.398v-0.571h-1.884
		l-0.24,1.891l0.603,0.028c0.053-0.102,0.133-0.172,0.238-0.21c0.06-0.02,0.13-0.031,0.212-0.031c0.173,0,0.3,0.06,0.382,0.181
		c0.081,0.12,0.122,0.268,0.122,0.443c0,0.178-0.044,0.325-0.131,0.443c-0.087,0.117-0.214,0.176-0.381,0.176
		c-0.144,0-0.254-0.04-0.33-0.119c-0.075-0.08-0.126-0.192-0.153-0.339h-0.671c0.024,0.321,0.14,0.569,0.349,0.744
		s0.477,0.262,0.802,0.262c0.404,0,0.708-0.124,0.911-0.373c0.203-0.249,0.304-0.531,0.304-0.848c0-0.364-0.105-0.641-0.316-0.831
		C53.882,36.36,53.635,36.265,53.352,36.265z"/>
	<path d="M56.083,36.291c-0.142,0-0.268,0.023-0.378,0.068c-0.11,0.046-0.207,0.118-0.29,0.217c0.019-0.264,0.054-0.464,0.104-0.6
		c0.093-0.246,0.249-0.368,0.468-0.368c0.146,0,0.256,0.054,0.328,0.161c0.042,0.066,0.064,0.127,0.064,0.182h0.671
		c-0.024-0.271-0.13-0.488-0.319-0.65c-0.189-0.163-0.442-0.244-0.76-0.244c-0.22,0-0.41,0.05-0.568,0.151
		c-0.158,0.101-0.286,0.234-0.384,0.399c-0.113,0.194-0.19,0.436-0.229,0.727c-0.022,0.164-0.033,0.376-0.033,0.637
		c0,0.445,0.079,0.809,0.238,1.091c0.205,0.36,0.523,0.541,0.954,0.541c0.401,0,0.697-0.122,0.888-0.366s0.286-0.526,0.286-0.845
		c0-0.321-0.097-0.585-0.292-0.791S56.387,36.291,56.083,36.291z M56.311,37.886c-0.086,0.113-0.203,0.169-0.353,0.169
		c-0.153,0-0.279-0.058-0.378-0.175c-0.099-0.117-0.149-0.267-0.149-0.451c0-0.228,0.066-0.393,0.198-0.496
		c0.088-0.069,0.19-0.104,0.305-0.104c0.142,0,0.261,0.053,0.359,0.159c0.098,0.106,0.146,0.259,0.146,0.459
		C56.439,37.627,56.396,37.773,56.311,37.886z"/>
	<rect x="14.122" y="25.562" width="2.688" height="2.375"/>
	<rect x="7.396" y="25.562" width="2.688" height="2.375"/>
	<path d="M10.083,30.969v-2.031H7.56C7.923,30.036,8.896,30.844,10.083,30.969z"/>
	<rect x="11.083" y="28.938" width="2.039" height="2.062"/>
	<path d="M16.645,28.938h-2.523v2.031C15.309,30.844,16.281,30.036,16.645,28.938z"/>
	<path d="M13.122,24.562h0.5h0.5h2.601c-0.312-1.324-1.494-2.312-2.913-2.312h-2.726v5.688h2.039V24.562z"/>
	<path d="M10.083,22.281c-1.277,0.134-2.312,1.057-2.601,2.281h2.601V22.281z"/>
	<path d="M49.765,28.491c3.07,0,5.568-2.498,5.568-5.568s-2.498-5.568-5.568-5.568c-1.092,0-2.108,0.32-2.968,0.865
		c-0.797-0.438-1.71-0.688-2.681-0.688c-3.081,0-5.588,2.507-5.588,5.588c0,3.082,2.507,5.588,5.588,5.588
		c1.108,0,2.138-0.328,3.008-0.886C47.909,28.248,48.809,28.491,49.765,28.491z M49.765,18.354c2.519,0,4.568,2.049,4.568,4.568
		c0,2.519-2.049,4.568-4.568,4.568c-0.627,0-1.225-0.128-1.77-0.358c0.106-0.102,0.206-0.21,0.303-0.321h-0.7h-0.196h-0.081
		c-0.075-0.059-0.142-0.126-0.213-0.189c-0.011-0.009-0.021-0.019-0.032-0.028c-0.224-0.201-0.436-0.414-0.621-0.654h1.25h0.641
		h0.583c0.127-0.216,0.244-0.439,0.342-0.673h-0.56h-0.568h-2.12c-0.148-0.276-0.268-0.566-0.362-0.871H48.5h0.522h0.528
		c0.058-0.245,0.102-0.496,0.126-0.752H49.15h-0.5h-3.157c-0.032-0.225-0.069-0.449-0.069-0.683c0-0.064,0.017-0.124,0.019-0.188
		h3.225h0.5h0.517c-0.015-0.249-0.042-0.494-0.089-0.733h-0.513h-0.522h-3.044c0.057-0.302,0.146-0.591,0.256-0.871h2.479h0.561
		h0.532c-0.097-0.26-0.209-0.512-0.342-0.752h-0.591h-0.608h-1.65c0.191-0.314,0.407-0.609,0.662-0.871h0.142h0.776h0.673
		c-0.208-0.249-0.438-0.478-0.685-0.688C48.339,18.547,49.027,18.354,49.765,18.354z"/>
	<polygon points="9.276,45.602 8.064,43.473 7.396,43.473 7.396,46.526 7.99,46.526 7.99,44.36 9.233,46.526 9.871,46.526 
		9.871,43.473 9.276,43.473 	"/>
	<path d="M12.269,46.213c-0.003-0.102-0.004-0.189-0.004-0.261v-1.036c0-0.272-0.096-0.457-0.289-0.555
		c-0.193-0.098-0.413-0.147-0.662-0.147c-0.381,0-0.651,0.099-0.807,0.298c-0.098,0.127-0.154,0.289-0.166,0.487h0.57
		c0.014-0.087,0.042-0.156,0.084-0.207c0.059-0.069,0.159-0.104,0.3-0.104c0.126,0,0.221,0.017,0.287,0.053
		c0.065,0.035,0.097,0.099,0.097,0.192c0,0.076-0.042,0.132-0.127,0.168c-0.047,0.021-0.126,0.038-0.236,0.052l-0.202,0.025
		c-0.23,0.029-0.404,0.077-0.522,0.145c-0.216,0.124-0.323,0.325-0.323,0.603c0,0.214,0.067,0.379,0.201,0.496
		c0.134,0.117,0.304,0.175,0.51,0.175c0.161,0,0.305-0.037,0.433-0.11c0.107-0.062,0.201-0.137,0.283-0.226
		c0.004,0.051,0.01,0.097,0.016,0.137c0.007,0.04,0.02,0.083,0.037,0.128h0.642v-0.087c-0.039-0.018-0.068-0.041-0.087-0.068
		C12.285,46.343,12.273,46.29,12.269,46.213z M11.677,45.648c-0.004,0.198-0.06,0.333-0.169,0.408
		c-0.109,0.075-0.228,0.112-0.356,0.112c-0.081,0-0.151-0.022-0.207-0.067c-0.057-0.045-0.085-0.118-0.085-0.218
		c0-0.113,0.046-0.197,0.139-0.25c0.055-0.032,0.146-0.059,0.271-0.081l0.134-0.025c0.067-0.012,0.12-0.026,0.159-0.04
		c0.039-0.014,0.077-0.034,0.115-0.057V45.648z"/>
	<path d="M15.86,44.479c-0.079-0.096-0.166-0.164-0.263-0.203c-0.097-0.039-0.195-0.058-0.294-0.058
		c-0.149,0-0.285,0.031-0.406,0.093c-0.115,0.062-0.211,0.16-0.288,0.292c-0.044-0.11-0.109-0.201-0.194-0.271
		c-0.107-0.076-0.246-0.114-0.419-0.114c-0.182,0-0.331,0.044-0.445,0.133c-0.065,0.05-0.134,0.133-0.207,0.25v-0.329H12.77v2.254
		h0.599v-1.359c0-0.123,0.016-0.216,0.047-0.277c0.058-0.109,0.171-0.164,0.34-0.164c0.145,0,0.242,0.054,0.292,0.164
		c0.027,0.06,0.041,0.158,0.041,0.292v1.344h0.594v-1.344c0-0.101,0.016-0.187,0.048-0.259c0.062-0.135,0.175-0.203,0.338-0.203
		c0.141,0,0.237,0.052,0.29,0.157c0.028,0.055,0.042,0.126,0.042,0.211v1.438h0.605l0.004-1.423c0-0.146-0.007-0.258-0.021-0.333
		C15.967,44.655,15.924,44.558,15.86,44.479z"/>
	<path d="M18.593,45.115c-0.027-0.177-0.087-0.333-0.18-0.467c-0.103-0.152-0.233-0.263-0.39-0.334
		c-0.157-0.07-0.334-0.106-0.531-0.106c-0.331,0-0.6,0.105-0.807,0.313c-0.207,0.208-0.311,0.508-0.311,0.899
		c0,0.418,0.115,0.719,0.344,0.904c0.23,0.185,0.495,0.278,0.795,0.278c0.364,0,0.647-0.11,0.849-0.329
		c0.13-0.138,0.203-0.274,0.219-0.408H17.98c-0.035,0.066-0.076,0.118-0.122,0.156c-0.084,0.069-0.193,0.104-0.328,0.104
		c-0.127,0-0.235-0.028-0.326-0.085c-0.148-0.091-0.227-0.25-0.236-0.477h1.644C18.616,45.368,18.609,45.219,18.593,45.115z
		 M16.983,45.173c0.022-0.147,0.074-0.263,0.157-0.35c0.083-0.086,0.201-0.129,0.352-0.129c0.139,0,0.256,0.041,0.35,0.122
		c0.094,0.081,0.147,0.2,0.157,0.357H16.983z"/>
	<polygon points="21.954,43.473 21.316,43.473 21.316,46.526 23.479,46.526 23.479,45.977 21.954,45.977 	"/>
	<path d="M25.707,46.213c-0.003-0.102-0.004-0.189-0.004-0.261v-1.036c0-0.272-0.096-0.457-0.289-0.555
		c-0.193-0.098-0.413-0.147-0.661-0.147c-0.381,0-0.651,0.099-0.807,0.298c-0.098,0.127-0.154,0.289-0.166,0.487h0.57
		c0.014-0.087,0.042-0.156,0.084-0.207c0.059-0.069,0.159-0.104,0.3-0.104c0.126,0,0.221,0.017,0.287,0.053
		c0.065,0.035,0.097,0.099,0.097,0.192c0,0.076-0.042,0.132-0.127,0.168c-0.047,0.021-0.126,0.038-0.236,0.052l-0.202,0.025
		c-0.23,0.029-0.404,0.077-0.522,0.145c-0.216,0.124-0.323,0.325-0.323,0.603c0,0.214,0.067,0.379,0.201,0.496
		c0.134,0.117,0.304,0.175,0.51,0.175c0.161,0,0.305-0.037,0.433-0.11c0.107-0.062,0.201-0.137,0.283-0.226
		c0.004,0.051,0.01,0.097,0.016,0.137c0.007,0.04,0.019,0.083,0.037,0.128h0.642v-0.087c-0.039-0.018-0.068-0.041-0.087-0.068
		C25.723,46.343,25.711,46.29,25.707,46.213z M25.114,45.648c-0.004,0.198-0.06,0.333-0.169,0.408
		c-0.109,0.075-0.228,0.112-0.356,0.112c-0.081,0-0.151-0.022-0.207-0.067c-0.057-0.045-0.085-0.118-0.085-0.218
		c0-0.113,0.046-0.197,0.139-0.25c0.055-0.032,0.146-0.059,0.271-0.081l0.134-0.025c0.067-0.012,0.12-0.026,0.159-0.04
		c0.039-0.014,0.077-0.034,0.115-0.057V45.648z"/>
	<path d="M27.44,45.167c-0.353-0.077-0.558-0.132-0.616-0.164c-0.058-0.03-0.087-0.079-0.087-0.147c0-0.054,0.028-0.101,0.082-0.141
		c0.055-0.04,0.146-0.06,0.275-0.06c0.156,0,0.267,0.04,0.332,0.12c0.035,0.044,0.056,0.104,0.065,0.18h0.59
		c-0.026-0.276-0.128-0.471-0.306-0.583c-0.178-0.112-0.408-0.169-0.69-0.169c-0.298,0-0.528,0.075-0.692,0.225
		c-0.164,0.15-0.246,0.329-0.246,0.537c0,0.177,0.053,0.312,0.158,0.406c0.105,0.095,0.286,0.175,0.542,0.238
		c0.356,0.084,0.562,0.144,0.618,0.178c0.055,0.035,0.083,0.085,0.083,0.151c0,0.069-0.034,0.121-0.103,0.155
		s-0.161,0.052-0.278,0.052c-0.198,0-0.335-0.039-0.408-0.118c-0.042-0.044-0.069-0.119-0.081-0.224h-0.599
		c0,0.232,0.085,0.423,0.254,0.573c0.169,0.15,0.432,0.224,0.788,0.224c0.349,0,0.606-0.071,0.773-0.212s0.25-0.324,0.25-0.548
		c0-0.17-0.058-0.311-0.174-0.425C27.851,45.306,27.675,45.222,27.44,45.167z"/>
	<path d="M29.245,43.659h-0.584v0.63h-0.315v0.42h0.315v1.39c0,0.141,0.033,0.245,0.099,0.313c0.102,0.106,0.292,0.154,0.571,0.145
		l0.28-0.01v-0.441c-0.02,0.001-0.039,0.002-0.059,0.003s-0.039,0.001-0.057,0.001c-0.12,0-0.192-0.012-0.215-0.034
		c-0.024-0.023-0.035-0.081-0.035-0.173v-1.193h0.367v-0.42h-0.367V43.659z"/>
	<path d="M32.419,44.215c-0.186,0-0.339,0.045-0.46,0.137c-0.067,0.051-0.139,0.135-0.215,0.25v-0.329h-0.572v2.254h0.59v-1.222
		c0-0.139,0.019-0.254,0.057-0.344c0.074-0.17,0.21-0.255,0.409-0.255c0.162,0,0.271,0.058,0.329,0.174
		c0.032,0.064,0.047,0.155,0.047,0.273v1.373h0.605v-1.52c0-0.283-0.074-0.486-0.222-0.608
		C32.841,44.275,32.651,44.215,32.419,44.215z"/>
	<path d="M35.607,46.213c-0.003-0.102-0.004-0.189-0.004-0.261v-1.036c0-0.272-0.096-0.457-0.289-0.555
		c-0.193-0.098-0.413-0.147-0.661-0.147c-0.381,0-0.651,0.099-0.807,0.298c-0.098,0.127-0.154,0.289-0.166,0.487h0.57
		c0.014-0.087,0.042-0.156,0.084-0.207c0.059-0.069,0.159-0.104,0.3-0.104c0.126,0,0.221,0.017,0.287,0.053
		c0.065,0.035,0.097,0.099,0.097,0.192c0,0.076-0.042,0.132-0.127,0.168c-0.047,0.021-0.126,0.038-0.236,0.052l-0.202,0.025
		c-0.23,0.029-0.404,0.077-0.522,0.145c-0.216,0.124-0.323,0.325-0.323,0.603c0,0.214,0.067,0.379,0.201,0.496
		c0.134,0.117,0.304,0.175,0.509,0.175c0.161,0,0.305-0.037,0.433-0.11c0.107-0.062,0.201-0.137,0.283-0.226
		c0.004,0.051,0.01,0.097,0.016,0.137c0.007,0.04,0.019,0.083,0.037,0.128h0.642v-0.087c-0.039-0.018-0.068-0.041-0.087-0.068
		C35.623,46.343,35.611,46.29,35.607,46.213z M35.015,45.648c-0.004,0.198-0.06,0.333-0.169,0.408
		c-0.109,0.075-0.228,0.112-0.356,0.112c-0.081,0-0.151-0.022-0.207-0.067c-0.057-0.045-0.085-0.118-0.085-0.218
		c0-0.113,0.047-0.197,0.139-0.25c0.055-0.032,0.146-0.059,0.271-0.081l0.134-0.025c0.067-0.012,0.12-0.026,0.159-0.04
		c0.039-0.014,0.077-0.034,0.114-0.057V45.648z"/>
	<path d="M39.199,44.479c-0.079-0.096-0.166-0.164-0.263-0.203c-0.097-0.039-0.195-0.058-0.294-0.058
		c-0.149,0-0.285,0.031-0.406,0.093c-0.115,0.062-0.211,0.16-0.288,0.292c-0.044-0.11-0.109-0.201-0.194-0.271
		c-0.107-0.076-0.246-0.114-0.419-0.114c-0.182,0-0.331,0.044-0.445,0.133c-0.065,0.05-0.134,0.133-0.207,0.25v-0.329h-0.574v2.254
		h0.599v-1.359c0-0.123,0.016-0.216,0.047-0.277c0.058-0.109,0.171-0.164,0.34-0.164c0.145,0,0.242,0.054,0.292,0.164
		c0.027,0.06,0.041,0.158,0.041,0.292v1.344h0.594v-1.344c0-0.101,0.016-0.187,0.048-0.259c0.062-0.135,0.175-0.203,0.338-0.203
		c0.141,0,0.237,0.052,0.29,0.157c0.028,0.055,0.042,0.126,0.042,0.211v1.438h0.605l0.004-1.423c0-0.146-0.007-0.258-0.021-0.333
		C39.305,44.655,39.262,44.558,39.199,44.479z"/>
	<path d="M41.932,45.115c-0.027-0.177-0.087-0.333-0.18-0.467c-0.103-0.152-0.233-0.263-0.39-0.334
		c-0.157-0.07-0.334-0.106-0.531-0.106c-0.331,0-0.6,0.105-0.807,0.313c-0.207,0.208-0.311,0.508-0.311,0.899
		c0,0.418,0.115,0.719,0.344,0.904c0.23,0.185,0.495,0.278,0.795,0.278c0.364,0,0.647-0.11,0.849-0.329
		c0.13-0.138,0.203-0.274,0.219-0.408h-0.602c-0.035,0.066-0.076,0.118-0.122,0.156c-0.084,0.069-0.193,0.104-0.328,0.104
		c-0.127,0-0.235-0.028-0.326-0.085c-0.148-0.091-0.227-0.25-0.236-0.477h1.644C41.954,45.368,41.948,45.219,41.932,45.115z
		 M40.321,45.173c0.022-0.147,0.074-0.263,0.157-0.35c0.083-0.086,0.201-0.129,0.352-0.129c0.139,0,0.256,0.041,0.35,0.122
		c0.094,0.081,0.147,0.2,0.157,0.357H40.321z"/>
</g>
</svg>
